<?xml version="1.0" encoding="UTF-8"?>
<svg width="30px" height="30px" viewBox="0 0 30 30" version="1.1" xmlns="http://www.w3.org/2000/svg" xmlns:xlink="http://www.w3.org/1999/xlink">
    <!-- Generator: Sketch 45.2 (43514) - http://www.bohemiancoding.com/sketch -->
    <title>About_us_button</title>
    <desc>Created with Sketch.</desc>
    <defs></defs>
    <g id="Application" stroke="none" stroke-width="1" fill="none" fill-rule="evenodd" opacity="0.7">
        <g id="iOS---Home---Notifications-tooltip" transform="translate(-24.000000, -83.000000)" fill-rule="nonzero" fill="#FFFFFF">
            <path d="M53.1,97.55 C53.1,105.585743 46.5857431,112.1 38.55,112.1 C30.5142569,112.1 24,105.585743 24,97.55 C24,89.5142569 30.5142569,83 38.55,83 C46.5857431,83 53.1,89.5142569 53.1,97.55 Z M26.1,97.55 C26.1,104.425945 31.6740549,110 38.55,110 C45.4259451,110 51,104.425945 51,97.55 C51,90.6740549 45.4259451,85.1 38.55,85.1 C31.6740549,85.1 26.1,90.6740549 26.1,97.55 Z M39.3896233,98.070663 L39.3243862,98.8158885 C39.2482621,99.2345714 38.9396019,99.538 38.5379992,99.538 L38.4419992,99.538 C38.0291724,99.538 37.7101419,99.234921 37.6546685,98.8095501 L37.4950789,97.4366549 C37.4230752,96.95063 37.7165633,96.5770997 38.2084684,96.5224552 C39.6903359,96.3805743 40.4539992,95.8251828 40.4539992,94.894 L40.4539992,94.862 C40.4539992,94.0049632 39.7902068,93.442 38.7139992,93.442 C37.9153487,93.442 37.2472774,93.7181859 36.6004687,94.3000869 C36.4077589,94.4542547 36.1783958,94.546 35.9459992,94.546 C35.3975469,94.546 34.9499992,94.1039776 34.9499992,93.566 C34.9499992,93.2782942 35.0718061,93.0018864 35.3013772,92.8052606 C36.245525,91.9145552 37.3628603,91.45 38.7619992,91.45 C41.0811709,91.45 42.6219992,92.7620386 42.6219992,94.798 L42.6219992,94.83 C42.6219992,96.7143938 41.3892086,97.8041303 39.6499985,98.0400017 L39.3896233,98.070663 Z M37.2059992,102.514001 L37.2059992,102.354001 C37.2059992,101.669567 37.736062,101.150001 38.4419992,101.150001 C39.1479365,101.150001 39.6779992,101.669567 39.6779992,102.354001 L39.6779992,102.514001 C39.6779992,103.198434 39.1479365,103.718001 38.4419992,103.718001 C37.736062,103.718001 37.2059992,103.198434 37.2059992,102.514001 Z" id="About_us_button"></path>
        </g>
    </g>
</svg>