<?xml version="1.0" encoding="UTF-8"?>
<svg width="375px" height="131px" viewBox="0 0 375 131" version="1.1" xmlns="http://www.w3.org/2000/svg" xmlns:xlink="http://www.w3.org/1999/xlink">
    <!-- Generator: Sketch 45.2 (43514) - http://www.bohemiancoding.com/sketch -->
    <title>cityBackground</title>
    <desc>Created with Sketch.</desc>
    <defs>
        <linearGradient x1="50%" y1="0%" x2="50%" y2="100%" id="linearGradient-1">
            <stop stop-color="#3495D5" stop-opacity="0" offset="0%"></stop>
            <stop stop-color="#3495D5" offset="100%"></stop>
        </linearGradient>
    </defs>
    <g id="Application" stroke="none" stroke-width="1" fill="none" fill-rule="evenodd">
        <g id="iOS---Home---Notifications-tooltip" transform="translate(0.000000, -65.000000)">
            <g id="cityBackground" transform="translate(0.000000, 65.000000)">
                <rect id="Bar-Copy-2" fill="#40A0E0" x="0" y="0" width="375" height="130.999998"></rect>
                <path d="M75.5314898,19.2784841 C75.5314898,18.1705637 74.636311,17.2735375 73.5320521,17.2735375 C72.4200945,17.2735375 71.5326144,18.1711827 71.5326144,19.2784841 L71.5326144,37.0000003 L64.5063503,37.0000003 L64.5063494,98.7275381 L54.6384106,98.7275381 L54.6384106,84.6069557 L46.6566458,84.6069557 L46.6566446,64.4579191 L23.5667224,64.4579191 L23.5667236,80.1161887 L15.0905989,80.1161887 L15.0905989,49.7227157 L0,49.7227157 L0,130.999998 L375,130.999998 L375,53.5285094 L360.908555,53.5285099 L360.908556,85.1161887 L350.432994,85.1161887 L350.432993,66.8432605 L333.341946,66.8432605 L333.341947,99.6069557 L325.360182,99.6069557 L325.360182,78.7275381 L313.492805,78.7275381 L313.492806,39.2584527 L294.402322,39.2584527 L294.402308,69.5926421 L282.825847,69.5926421 L282.82586,59.8432595 L268.55796,51.8432595 L254.29006,59.8432595 L254.29006,93.3535846 L240.714161,93.3535846 L240.714161,66.8432595 L223.623114,66.8432595 L223.623114,78.7275381 L211.755738,78.7275381 L211.755738,97.6069557 L203.773973,97.6069557 L203.773972,69.5926406 L186.682925,69.5926406 L186.682926,85.1161887 L176.207364,85.1161887 L176.207365,62.3683514 L159.116765,62.3683514 L159.116765,69.5926409 L146.572142,69.5926409 L146.572142,85.1161889 L131.480981,85.1161889 L131.480981,99.6405135 L120.246101,99.6405135 L120.246107,63.5285103 L112.264342,63.5285103 L112.264342,49.8432595 L92.1741385,49.8432595 L92.1741385,88.3535846 L81.5973962,88.3535846 L81.5973972,37.0000003 L75.5314898,37.0000003 L75.5314898,19.2784841 Z" id="city-background" fill="url(#linearGradient-1)"></path>
            </g>
        </g>
    </g>
</svg>