<?xml version="1.0" encoding="UTF-8"?>
<svg width="113px" height="23px" viewBox="0 0 113 23" version="1.1" xmlns="http://www.w3.org/2000/svg" xmlns:xlink="http://www.w3.org/1999/xlink">
    <!-- Generator: Sketch 45.2 (43514) - http://www.bohemiancoding.com/sketch -->
    <title>logo</title>
    <desc>Created with Sketch.</desc>
    <defs></defs>
    <g id="Application" stroke="none" stroke-width="1" fill="none" fill-rule="evenodd">
        <g id="iOS---Home---Notifications-tooltip" transform="translate(-131.000000, -85.000000)" fill="#FFFFFF">
            <path d="M207.500718,88.496648 L218.523755,88.496648 C219.269109,88.496648 219.859181,87.9380306 219.859181,87.1926766 C219.859181,86.4473225 219.269109,85.8572506 218.523755,85.8572506 L206.072123,85.8572506 C205.29611,85.8572506 204.674584,86.5094354 204.674584,87.2858458 L204.674584,106.133906 C204.674584,106.910317 205.29611,107.531445 206.072123,107.531445 L218.523755,107.531445 C219.269109,107.531445 219.859181,106.972828 219.859181,106.227474 C219.859181,105.48212 219.269109,104.892048 218.523755,104.892048 L207.500718,104.892048 L207.500718,88.496648 Z M173.933229,85.7023268 C173.157216,85.7023268 172.536088,86.3545116 172.536088,87.1305239 L172.536088,103.898203 L160.581358,86.6340194 C160.146568,86.0750039 159.556496,85.7023268 158.873255,85.7023268 L158.469521,85.7023268 C157.35149,85.7023268 156.451252,86.6340194 156.451252,87.7516523 L156.451252,106.289547 C156.451252,107.065559 157.072381,107.686688 157.848791,107.686688 C158.625202,107.686688 159.276988,107.065559 159.276988,106.289547 L159.276988,89.4908117 L171.293831,106.848164 C171.666508,107.345067 172.25658,107.686688 172.939822,107.686688 L173.3121,107.686688 C174.430131,107.686688 175.361824,106.786051 175.361824,105.668419 L175.361824,87.1305239 C175.361824,86.3545116 174.709639,85.7023268 173.933229,85.7023268 L173.933229,85.7023268 Z M189.024617,85.8572904 L182.783472,85.8572904 C182.007061,85.8572904 181.385933,86.5094752 181.385933,87.2858856 L181.385933,106.133946 C181.385933,106.910357 182.007061,107.531485 182.783472,107.531485 L189.024617,107.531485 C196.445907,107.531485 199.98594,101.91107 199.98594,96.6943877 C199.98594,91.4466494 196.445907,85.8572904 189.024617,85.8572904 L189.024617,85.8572904 Z M188.682997,104.892088 L184.212067,104.892088 L184.212067,88.4966878 L188.682997,88.4966878 C193.868622,88.4966878 197.191261,91.8503828 197.191261,96.6943877 C197.191261,101.538393 193.868622,104.892088 188.682997,104.892088 L188.682997,104.892088 Z M241.967529,85.7023268 C241.191517,85.7023268 240.570388,86.3545116 240.570388,87.1305239 L240.570388,103.898203 L228.615658,86.6340194 C228.180868,86.0750039 227.590796,85.7023268 226.907555,85.7023268 L226.503822,85.7023268 C225.385791,85.7023268 224.485553,86.6340194 224.485553,87.7516523 L224.485553,106.289547 C224.485553,107.065559 225.106681,107.686688 225.883091,107.686688 C226.659502,107.686688 227.311288,107.065559 227.311288,106.289547 L227.311288,89.4908117 L239.328132,106.848164 C239.700809,107.345067 240.290881,107.686688 240.974122,107.686688 L241.346401,107.686688 C242.464432,107.686688 243.396124,106.786051 243.396124,105.668419 L243.396124,87.1305239 C243.396124,86.3545116 242.743939,85.7023268 241.967529,85.7023268 L241.967529,85.7023268 Z M141.040779,85.0943775 C146.257461,85.0943775 151.081558,88.6344111 151.081558,96.0553024 L151.081558,106.211946 C151.081558,106.940577 150.49069,107.531445 149.76166,107.531445 C149.033029,107.531445 148.44216,106.940577 148.44216,106.211946 L148.44216,96.3973212 C148.44216,91.2112975 145.884784,88.0574784 141.040779,88.0574784 C136.196774,88.0574784 133.639397,91.2112975 133.639397,96.3973212 L133.639397,106.211946 C133.639397,106.940577 133.048529,107.531445 132.319898,107.531445 C131.590868,107.531445 131,106.940577 131,106.211946 L131,96.0553024 C131,88.6344111 135.793041,85.0943775 141.040779,85.0943775 Z M137.686391,101.071006 C136.947832,101.071006 136.349112,100.472286 136.349112,99.7337278 C136.349112,98.9951695 136.947832,98.3964497 137.686391,98.3964497 L144.372781,98.3964497 C145.111339,98.3964497 145.710059,98.9951695 145.710059,99.7337278 C145.710059,100.472286 145.111339,101.071006 144.372781,101.071006 L137.686391,101.071006 Z M211.350851,98.20515 C210.612293,98.20515 210.013573,97.6064302 210.013573,96.8678719 C210.013573,96.1293136 210.612293,95.5305938 211.350851,95.5305938 L216.699964,95.5305938 C217.438522,95.5305938 218.037242,96.1293136 218.037242,96.8678719 C218.037242,97.6064302 217.438522,98.20515 216.699964,98.20515 L211.350851,98.20515 Z" id="logo"></path>
        </g>
    </g>
</svg>