<?xml version="1.0" encoding="UTF-8"?>
<svg width="32px" height="32px" viewBox="0 0 32 32" version="1.1" xmlns="http://www.w3.org/2000/svg" xmlns:xlink="http://www.w3.org/1999/xlink">
    <!-- Generator: Sketch 45.2 (43514) - http://www.bohemiancoding.com/sketch -->
    <title>TabBar_Map_Active</title>
    <desc>Created with Sketch.</desc>
    <defs>
        <path d="M17.0625,2.86956756 C16.9345905,2.86956756 16.8066809,2.8493722 16.6836155,2.80898148 L16.6836155,2.80898148 L9.31638455,0.391018518 C9.19331907,0.350627796 9.06540953,0.330432435 8.9375,0.330432435 L8.9375,21.1304357 C9.06540953,21.1304324 9.19331907,21.1506278 9.31638455,21.1910185 L16.6836155,23.6089815 C16.9297464,23.6897629 17.1952536,23.6897629 17.4413845,23.6089815 L17.6214653,23.5498781 L17.0625,23.5498781 L17.0625,2.86956435 Z M18.6875,2.4 L24.4061155,0.523121061 L24.4061155,0.523121061 C25.0436807,0.313868904 25.7301618,0.661085201 25.9394139,1.29865037 C25.9795497,1.42093905 26,1.54882826 26,1.67753491 L26,19.9200035 L26,19.9200035 C26,20.4450444 25.6627443,20.9106891 25.1638846,21.0744174 L18.6875,23.2 L18.6875,2.4 Z M7.3125,21.6 L1.59388448,23.4768789 L1.59388448,23.4768789 C0.956319316,23.6861311 0.26983824,23.3389148 0.0605860827,22.7013496 C0.0204503101,22.579061 -4.72315756e-16,22.4511717 -8.8817842e-16,22.3224651 L0,4.07999649 L4.4408921e-16,4.07999649 C3.79790246e-16,3.55495561 0.337255713,3.08931095 0.836115389,2.92558264 L7.3125,0.8 L7.3125,21.6 Z" id="path-1"></path>
    </defs>
    <g id="Application" stroke="none" stroke-width="1" fill="none" fill-rule="evenodd">
        <g id="TabBar_Map_Active" transform="translate(3.000000, 4.000000)">
            <g id="Group">
                <g id="Combined-Shape">
                    <use fill="#FFFFFF" fill-rule="evenodd" xlink:href="#path-1"></use>
                    <path stroke="#FFFFFF" stroke-width="1.61999991" d="M9.74749996,20.4800023 L9.56897424,20.4214093 C9.36481801,20.3544042 9.15166964,20.3204303 8.93747962,20.3204357 L8.9375,21.1304357 L9.74749996,21.1304357 L9.74749996,20.4800023 Z M9.74749996,1.38502328 L9.74749996,0.330432435 L8.9375,0.330432435 L8.9375,1.14043239 C8.98034601,1.14043239 9.02295636,1.14722435 9.06379485,1.16062775 L9.74749996,1.38502328 Z M16.2525,3.51999766 L16.4310258,3.57859072 C16.6351747,3.64559346 16.8483159,3.67956752 17.0625,3.67956752 L17.0625,2.86956756 L16.2525,2.86956756 L16.2525,3.51999766 Z M16.2525,3.51999766 L16.2525,22.6149767 L9.74749996,20.4800023 L9.74749996,1.38502328 L16.2525,3.51999766 Z M19.4975,2.98666433 L19.4975,22.0816434 L24.9112949,20.3048081 C25.0775815,20.250232 25.19,20.0950171 25.19,19.9200035 L25.19,1.67753491 C25.19,1.6346327 25.1831833,1.59200296 25.1698047,1.55124006 C25.100054,1.33871834 24.8712269,1.22297958 24.6587052,1.2927303 L19.4975,2.98666433 Z M6.50250004,21.0133357 L6.50250004,1.91835661 L1.08870509,3.69519188 C0.922418528,3.74976798 0.809999957,3.90498287 0.809999957,4.07999649 L0.809999957,22.3224651 C0.809999957,22.3653673 0.816816727,22.407997 0.830195318,22.4487599 C0.899946037,22.6612817 1.12877306,22.7770204 1.34129478,22.7072697 L6.50250004,21.0133357 Z"></path>
                </g>
            </g>
        </g>
    </g>
</svg>