<?xml version="1.0" encoding="UTF-8"?>
<svg width="32px" height="32px" viewBox="0 0 32 32" version="1.1" xmlns="http://www.w3.org/2000/svg" xmlns:xlink="http://www.w3.org/1999/xlink">
    <!-- Generator: Sketch 45.2 (43514) - http://www.bohemiancoding.com/sketch -->
    <title>TabBar_Map_Inactive</title>
    <desc>Created with Sketch.</desc>
    <defs></defs>
    <g id="Application" stroke="none" stroke-width="1" fill="none" fill-rule="evenodd" opacity="0.599999964">
        <g id="TabBar_Map_Inactive" transform="translate(3.000000, 4.000000)" fill-rule="nonzero" fill="#FFFFFF">
            <path d="M16.65625,21.8860913 L16.65625,4.29848651 C16.2045204,4.27021797 15.7671015,4.194725 15.3931442,4.07199028 L9.57911556,2.16379627 C9.55675148,2.15645626 9.53236207,2.14965395 9.50624752,2.14338951 L9.50624752,19.7137815 C9.89991631,19.7486505 10.2779343,19.820056 10.6068558,19.9280097 L16.4208844,21.8362037 C16.4850362,21.8572587 16.5658532,21.8738892 16.65625,21.8860913 Z M18.28125,21.6467852 L24.3360049,19.6595836 C24.3055758,19.6695706 24.375,19.5749547 24.375,19.6069945 L24.375,2.21988142 L18.7264951,4.0737497 C18.5862813,4.1197686 18.4369922,4.15909894 18.28125,4.19173981 L18.28125,21.6467852 Z M7.88124752,19.777022 L7.88124752,2.29988223 L1.66399508,4.34041637 C1.69442423,4.33042936 1.625,4.42504528 1.625,4.39300554 L1.625,21.7801186 L7.27350492,19.9262503 C7.46183169,19.8644405 7.66653044,19.814697 7.88124752,19.777022 Z M10.0929857,21.445903 C9.45482856,21.2364566 8.41835111,21.237054 7.78737504,21.4441436 L1.15012496,23.6225231 C0.514928485,23.8309978 0,23.4649375 0,22.8069945 L0,4.39300554 C0,3.73412677 0.519148889,3.02961267 1.15012496,2.82252309 L7.78737504,0.644143577 C8.42257151,0.435668836 9.45811525,0.437535262 10.0929857,0.645902992 L15.9070143,2.55409701 C16.5451714,2.76354345 17.5816489,2.76294601 18.212625,2.55585642 L24.849875,0.377476911 C25.4850715,0.16900217 26,0.53506248 26,1.19300554 L26,19.6069945 C26,20.2658732 25.4808511,20.9703873 24.849875,21.1774769 L18.212625,23.3558564 C17.5774285,23.5643312 16.5418847,23.5624647 15.9070143,23.354097 L10.0929857,21.445903 Z" id="Combined-Shape"></path>
        </g>
    </g>
</svg>