<?xml version="1.0" encoding="UTF-8"?>
<svg width="32px" height="32px" viewBox="0 0 32 32" version="1.1" xmlns="http://www.w3.org/2000/svg" xmlns:xlink="http://www.w3.org/1999/xlink">
    <!-- Generator: Sketch 45.2 (43514) - http://www.bohemiancoding.com/sketch -->
    <title>TabBar_Subway_Inactive</title>
    <desc>Created with Sketch.</desc>
    <defs></defs>
    <g id="Application" stroke="none" stroke-width="1" fill="none" fill-rule="evenodd" opacity="0.6">
        <g id="TabBar_Subway_Inactive" transform="translate(5.000000, 5.000000)" fill-rule="nonzero" fill="#FFFFFF">
            <path d="M11.3076923,5.7037037 L11.3076923,8.14814815 C11.3076923,8.59815794 10.9460761,8.96296296 10.5,8.96296296 C10.0539239,8.96296296 9.69230769,8.59815794 9.69230769,8.14814815 L9.69230769,5.7037037 L3.46953035,5.7037037 L2.32925885,12.2222222 L18.6707411,12.2222222 L17.5304697,5.7037037 L11.3076923,5.7037037 Z M3.75459822,4.07407407 L17.2454018,4.07407407 L17.0043405,2.69601418 C16.9068622,2.13876619 16.3057655,1.62962963 15.7499014,1.62962963 L5.2500986,1.62962963 C4.69300336,1.62962963 4.09308164,2.13908712 3.9956595,2.69601418 L3.75459822,4.07407407 L3.75459822,4.07407407 Z M2.04419098,13.8518519 L2.01923077,13.9945403 L2.01923077,17.9259259 C2.01923077,19.2733113 3.1056475,20.3703704 4.44153026,20.3703704 L16.5584697,20.3703704 C17.8950313,20.3703704 18.9807692,19.2752163 18.9807692,17.9259259 L18.9807692,13.9945403 L18.955809,13.8518519 L2.04419098,13.8518519 L2.04419098,13.8518519 Z M2.40485529,2.41280845 C2.63795689,1.08025114 3.90603482,0 5.2500986,0 L15.7499014,0 C17.0881843,0 18.3611954,1.07540533 18.5951447,2.41280845 L20.5961538,13.8518519 L20.5961538,17.9259259 C20.5961538,20.1759749 18.7864509,22 16.5584697,22 L4.44153026,22 C2.2115789,22 0.403846154,20.1713965 0.403846154,17.9259259 L0.403846154,13.8518519 L2.40485529,2.41280845 Z M5.25,17.9259259 L6.86538462,17.9259259 C7.31146076,17.9259259 7.67307692,17.5611209 7.67307692,17.1111111 C7.67307692,16.6611013 7.31146076,16.2962963 6.86538462,16.2962963 L5.25,16.2962963 C4.80392386,16.2962963 4.44230769,16.6611013 4.44230769,17.1111111 C4.44230769,17.5611209 4.80392386,17.9259259 5.25,17.9259259 Z M14.1346154,17.9259259 L15.75,17.9259259 C16.1960761,17.9259259 16.5576923,17.5611209 16.5576923,17.1111111 C16.5576923,16.6611013 16.1960761,16.2962963 15.75,16.2962963 L14.1346154,16.2962963 C13.6885392,16.2962963 13.3269231,16.6611013 13.3269231,17.1111111 C13.3269231,17.5611209 13.6885392,17.9259259 14.1346154,17.9259259 Z" id="Combined-Shape"></path>
        </g>
    </g>
</svg>