<?xml version="1.0" encoding="UTF-8"?>
<svg width="31px" height="32px" viewBox="0 0 31 32" version="1.1" xmlns="http://www.w3.org/2000/svg" xmlns:xlink="http://www.w3.org/1999/xlink">
    <!-- Generator: Sketch 45.2 (43514) - http://www.bohemiancoding.com/sketch -->
    <title>TabBar_Alert_Inactive</title>
    <desc>Created with Sketch.</desc>
    <defs></defs>
    <g id="Application" stroke="none" stroke-width="1" fill="none" fill-rule="evenodd" opacity="0.599999964">
        <g id="TabBar_Alert_Inactive" transform="translate(5.000000, 5.000000)" fill-rule="nonzero" fill="#FFFFFF">
            <path d="M16.6666667,16.5 L16.6666667,9.82911692 C16.6666667,6.34907589 13.6840577,3.53571429 10,3.53571429 C6.31783566,3.53571429 3.33333333,6.35266341 3.33333333,9.82911692 L3.33333333,16.5 L16.6666667,16.5 Z M8.75,2.05214276 L8.75,1.57142857 C8.75,0.920521545 9.30964406,0.392857143 10,0.392857143 C10.6903559,0.392857143 11.25,0.920521545 11.25,1.57142857 L11.25,2.0520287 C15.2593859,2.62031296 18.3333333,5.88070403 18.3333333,9.82911692 L18.3333333,16.5 L19.1666667,16.5 C19.626904,16.5 20,16.8517763 20,17.2857143 C20,17.7196523 19.626904,18.0714286 19.1666667,18.0714286 L14.1460936,18.0714286 C13.9370418,20.0566625 12.1605617,21.6071429 10,21.6071429 C7.83943829,21.6071429 6.0629582,20.0566625 5.85390635,18.0714286 L0.833333333,18.0714286 C0.373096042,18.0714286 0,17.7196523 0,17.2857143 C0,16.8517763 0.373096042,16.5 0.833333333,16.5 L1.66666667,16.5 L1.66666667,9.82911692 C1.66666667,5.88637193 4.73989832,2.62124799 8.75,2.05214276 L8.75,2.05214276 Z M7.53456602,18.0714286 C7.73293189,19.1862445 8.76125155,20.0357143 10,20.0357143 C11.2387485,20.0357143 12.2670681,19.1862445 12.465434,18.0714286 L7.53456602,18.0714286 L7.53456602,18.0714286 Z" id="Combined-Shape"></path>
        </g>
    </g>
</svg>