<?xml version="1.0" encoding="UTF-8"?>
<svg width="31px" height="32px" viewBox="0 0 31 32" version="1.1" xmlns="http://www.w3.org/2000/svg" xmlns:xlink="http://www.w3.org/1999/xlink">
    <!-- Generator: Sketch 45.2 (43514) - http://www.bohemiancoding.com/sketch -->
    <title>TabBar_Alert_Active</title>
    <desc>Created with Sketch.</desc>
    <defs>
        <path d="M8.75,2.05741106 L8.75,1.57142857 C8.75,0.920521545 9.30964406,0.392857143 10,0.392857143 C10.6903559,0.392857143 11.25,0.920521545 11.25,1.57142857 L11.25,2.05741106 C15.2593859,2.66051554 18.3333333,6.12008785 18.3333333,10.297619 L18.3333333,16.5 L19.1666667,16.5 C19.626904,16.5 20,16.8517763 20,17.2857143 C20,17.7196523 19.626904,18.0714286 19.1666667,18.0714286 L14.1460936,18.0714286 C13.9370418,20.0566625 12.1605617,21.6071429 10,21.6071429 C7.83943829,21.6071429 6.0629582,20.0566625 5.85390635,18.0714286 L0.833333333,18.0714286 C0.373096042,18.0714286 0,17.7196523 0,17.2857143 C0,16.8517763 0.373096042,16.5 0.833333333,16.5 L1.66666667,16.5 L1.66666667,10.297619 L1.66666667,10.297619 C1.66666667,6.12008785 4.74061409,2.66051554 8.75,2.05741106 Z M7.53456602,18.0714286 C7.73293189,19.1862445 8.76125155,20.0357143 10,20.0357143 C11.2387485,20.0357143 12.2670681,19.1862445 12.465434,18.0714286 L7.53456602,18.0714286 Z" id="path-1"></path>
    </defs>
    <g id="Application" stroke="none" stroke-width="1" fill="none" fill-rule="evenodd">
        <g id="TabBar_Alert_Active" transform="translate(5.000000, 5.000000)">
            <g id="Combined-Shape">
                <use fill="#FFFFFF" fill-rule="evenodd" xlink:href="#path-1"></use>
                <path stroke="#FFFFFF" stroke-width="1.61999991" d="M2.47666662,17.2614286 L6.58308916,17.2614286 L6.65945235,17.9866019 C6.8256555,19.5649286 8.26049636,20.7971429 10,20.7971429 C11.7395036,20.7971429 13.1743445,19.5649286 13.3405476,17.9866019 L13.4169108,17.2614286 L17.5233334,17.2614286 L17.5233334,10.297619 C17.5233334,6.56295515 14.7844959,3.40819377 11.1295128,2.85839967 L10.44,2.75468099 L10.44,1.57142857 C10.44,1.37887518 10.2533142,1.2028571 10,1.2028571 C9.7466858,1.2028571 9.55999996,1.37887518 9.55999996,1.57142857 L9.55999996,2.75468099 L8.87048724,2.85839967 C5.21550413,3.40819377 2.47666662,6.56295515 2.47666662,10.297619 L2.47666662,17.2614286 Z M6.56771505,17.2614286 L13.4322849,17.2614286 L13.2629078,18.2133279 C12.9923664,19.7337705 11.6117,20.8457142 10,20.8457142 C8.38829999,20.8457142 7.00763363,19.7337705 6.73709218,18.2133279 L6.56771505,17.2614286 Z"></path>
            </g>
        </g>
    </g>
</svg>