<?xml version="1.0" encoding="UTF-8"?>
<svg width="31px" height="32px" viewBox="0 0 31 32" version="1.1" xmlns="http://www.w3.org/2000/svg" xmlns:xlink="http://www.w3.org/1999/xlink">
    <!-- Generator: Sketch 45.2 (43514) - http://www.bohemiancoding.com/sketch -->
    <title>TabBar_Subway_Active</title>
    <desc>Created with Sketch.</desc>
    <defs></defs>
    <g id="Application" stroke="none" stroke-width="1" fill="none" fill-rule="evenodd">
        <g id="TabBar_Subway_Active" transform="translate(4.000000, 5.000000)" fill-rule="nonzero" fill="#FFFFFF">
            <path d="M9.69230769,5.7037037 L3.46953035,5.7037037 L2.32925885,12.2222222 L18.6707411,12.2222222 L17.5304697,5.7037037 L11.3076923,5.7037037 L11.3076923,8.14814815 C11.3076923,8.59815794 10.9460761,8.96296296 10.5,8.96296296 C10.0539239,8.96296296 9.69230769,8.59815794 9.69230769,8.14814815 L9.69230769,5.7037037 L9.69230769,5.7037037 Z M2.40485529,2.41280845 C2.63795689,1.08025114 3.90603482,0 5.2500986,0 L15.7499014,0 C17.0881843,0 18.3611954,1.07540533 18.5951447,2.41280845 L20.5961538,13.8518519 L20.5961538,17.9259259 C20.5961538,20.1759749 18.7864509,22 16.5584697,22 L4.44153026,22 C2.2115789,22 0.403846154,20.1713965 0.403846154,17.9259259 L0.403846154,13.8518519 L2.40485529,2.41280845 Z M5.65384615,18.3333333 L7.26923077,18.3333333 C7.93834499,18.3333333 8.48076923,17.7861258 8.48076923,17.1111111 C8.48076923,16.4360964 7.93834499,15.8888889 7.26923077,15.8888889 L5.65384615,15.8888889 C4.98473194,15.8888889 4.44230769,16.4360964 4.44230769,17.1111111 C4.44230769,17.7861258 4.98473194,18.3333333 5.65384615,18.3333333 Z M14.5384615,18.3333333 L16.1538462,18.3333333 C16.8229604,18.3333333 17.3653846,17.7861258 17.3653846,17.1111111 C17.3653846,16.4360964 16.8229604,15.8888889 16.1538462,15.8888889 L14.5384615,15.8888889 C13.8693473,15.8888889 13.3269231,16.4360964 13.3269231,17.1111111 C13.3269231,17.7861258 13.8693473,18.3333333 14.5384615,18.3333333 Z" id="Combined-Shape"></path>
        </g>
    </g>
</svg>